<svg width="200" height="200" viewBox="0 0 200 200" fill="none" xmlns="http://www.w3.org/2000/svg">
<g clip-path="url(#clip0_70_30)">
<rect width="200" height="200" rx="23" fill="#413A3D"/>
<path d="M102.48 118.16C103.173 118.16 103.707 118.48 104.08 119.12C104.507 119.76 104.72 120.64 104.72 121.76C104.72 123.84 104.213 125.493 103.2 126.72C100.64 129.813 98.0533 132.213 95.44 133.92C92.8267 135.573 89.7333 136.4 86.16 136.4C82.6933 136.4 79.7333 135.467 77.28 133.6C74.88 131.733 72.5867 128.533 70.4 124C68.64 120.373 67.2533 117.707 66.24 116C65.2267 114.24 64.2133 112.987 63.2 112.24C62.24 111.493 61.04 111.04 59.6 110.88C59.3867 112 58.7733 115.52 57.76 121.44C57.3333 124.107 57.0667 125.733 56.96 126.32C56.4267 129.573 55.36 132.08 53.76 133.84C52.16 135.547 49.7333 136.4 46.48 136.4C42.9067 136.4 39.7333 135.36 36.96 133.28C34.24 131.147 32.1333 128.213 30.64 124.48C29.1467 120.693 28.4 116.4 28.4 111.6C28.4 102.64 29.9467 94.9067 33.04 88.4C36.1867 81.8933 40.56 76.9333 46.16 73.52C51.8133 70.0533 58.32 68.32 65.68 68.32C70.8 68.32 75.0933 69.0933 78.56 70.64C82.0267 72.1867 84.5867 74.32 86.24 77.04C87.9467 79.76 88.8 82.8267 88.8 86.24C88.8 89.2267 88.08 92.16 86.64 95.04C85.2533 97.8667 83.1467 100.373 80.32 102.56C77.4933 104.747 74.0533 106.373 70 107.44C72.56 108.133 74.5333 109.253 75.92 110.8C77.3067 112.347 78.6933 114.613 80.08 117.6C81.5733 120.8 83.04 123.147 84.48 124.64C85.9733 126.133 87.68 126.88 89.6 126.88C91.3067 126.88 92.9333 126.32 94.48 125.2C96.0267 124.027 97.9733 122.053 100.32 119.28C100.96 118.533 101.68 118.16 102.48 118.16ZM48.56 110.8C46.7467 110.8 45.4933 110.373 44.8 109.52C44.16 108.667 43.84 107.707 43.84 106.64C43.84 105.36 44.24 104.347 45.04 103.6C45.8933 102.853 46.8533 102.48 47.92 102.48H49.92C50.7733 97.2533 51.5733 92.7467 52.32 88.96C53.0133 85.4933 55.2533 83.76 59.04 83.76C62.08 83.76 63.6 85.12 63.6 87.84C63.6 88.4267 63.5733 88.88 63.52 89.2L61.12 102.48C64 102.32 66.6133 101.627 68.96 100.4C71.36 99.1733 73.2533 97.4667 74.64 95.28C76.08 93.0933 76.8 90.6133 76.8 87.84C76.8 84.48 75.6533 81.84 73.36 79.92C71.0667 78 67.7067 77.04 63.28 77.04C58.0533 77.04 53.4667 78.3467 49.52 80.96C45.6267 83.52 42.5867 87.36 40.4 92.48C38.2133 97.5467 37.12 103.733 37.12 111.04C37.12 114.453 37.4667 117.387 38.16 119.84C38.8533 122.293 39.7067 124.133 40.72 125.36C41.7333 126.587 42.6933 127.2 43.6 127.2C44.2933 127.2 44.8533 126.853 45.28 126.16C45.76 125.467 46.1333 124.347 46.4 122.8L48.56 110.8ZM172.311 118.16C173.004 118.16 173.537 118.48 173.911 119.12C174.337 119.76 174.551 120.64 174.551 121.76C174.551 123.84 174.044 125.493 173.031 126.72C167.751 133.173 162.124 136.4 156.151 136.4C150.977 136.4 146.844 134.4 143.751 130.4C140.657 126.4 139.111 120.667 139.111 113.2C139.111 111.387 139.191 109.573 139.351 107.76C135.831 108.4 131.991 108.88 127.831 109.2C125.057 109.413 123.164 109.547 122.151 109.6C121.084 115.04 119.591 121.707 117.671 129.6C116.551 134.24 114.417 136.56 111.271 136.56C107.857 136.56 106.151 135.013 106.151 131.92C106.151 131.227 106.284 130.267 106.551 129.04C108.364 121.733 109.804 115.547 110.871 110.48L107.031 110.64C105.271 110.64 103.991 110.347 103.191 109.76C102.391 109.12 101.991 108.107 101.991 106.72C101.991 104.96 102.497 103.68 103.511 102.88C104.524 102.027 106.204 101.547 108.551 101.44L112.791 101.28C114.177 93.76 114.871 88.0267 114.871 84.08C114.871 81.5733 114.497 79.8667 113.751 78.96C113.004 78.0533 112.017 77.6 110.791 77.6C107.057 77.6 102.844 80.72 98.1506 86.96C97.4573 87.8667 96.684 88.32 95.8306 88.32C95.084 88.32 94.444 87.9733 93.9106 87.28C93.3773 86.5867 93.1106 85.7067 93.1106 84.64C93.1106 82.9867 93.7773 81.2267 95.1106 79.36C97.4573 76.1067 100.417 73.44 103.991 71.36C107.564 69.2267 111.191 68.16 114.871 68.16C118.337 68.16 121.004 69.36 122.871 71.76C124.791 74.1067 125.751 77.7867 125.751 82.8C125.751 87.2267 125.111 93.2267 123.831 100.8L131.671 100.4C135.031 100.24 137.911 99.9733 140.311 99.6C141.271 93.7333 142.737 88.24 144.711 83.12C146.684 78 149.137 73.84 152.071 70.64C155.004 67.44 158.284 65.84 161.911 65.84C164.577 65.84 166.684 66.9067 168.231 69.04C169.777 71.12 170.551 73.8667 170.551 77.28C170.551 90.5067 163.804 99.68 150.311 104.8C150.151 106.933 150.071 109.147 150.071 111.44C150.071 117.04 150.764 121.013 152.151 123.36C153.537 125.707 155.484 126.88 157.991 126.88C160.177 126.88 162.177 126.32 163.991 125.2C165.804 124.027 167.857 122.053 170.151 119.28C170.791 118.533 171.511 118.16 172.311 118.16ZM161.511 72.8C160.337 72.8 159.084 73.8667 157.751 76C156.471 78.1333 155.244 81.04 154.071 84.72C152.897 88.4 151.964 92.4267 151.271 96.8C155.537 95.04 158.684 92.5333 160.711 89.28C162.737 86.0267 163.751 81.84 163.751 76.72C163.751 75.4933 163.537 74.5333 163.111 73.84C162.684 73.1467 162.151 72.8 161.511 72.8Z" fill="url(#paint0_linear_70_30)"/>
</g>
<defs>
<linearGradient id="paint0_linear_70_30" x1="97.7455" y1="32" x2="97.7455" y2="122.539" gradientUnits="userSpaceOnUse">
<stop stop-color="#896185"/>
<stop offset="0.44" stop-color="#D69287"/>
<stop offset="1" stop-color="#F6CCA5"/>
</linearGradient>
<clipPath id="clip0_70_30">
<rect width="200" height="200" fill="white"/>
</clipPath>
</defs>
</svg>
